# xmcd
#
# Track frame offsets:
#	150
#	10581
#	20653
#	33222
#	44775
#	55500
#	65629
#	75896
#	85833
#	100810
#	109608
#	118526
#	128148
#	141201
#	152971
#	165512
#
# Disc length: 2352 seconds
#
# Revision: 1
# Processed by: cddbd v1.4PL0 Copyright (c) Steve Scherf et al.
# Submitted via: EasyCDDAExtractor 5.0.7
#
DISCID=c2092e10
DTITLE=Johnny Winter - Premiere Collection CD 2
DYEAR=1900
DGENRE=Country
TTITLE0=Litle Darling
TTITLE1=By The Light Of The Silvery Moon
TTITLE2=Easy Lovin' Girl
TTITLE3=Eternally
TTITLE4=Gone For Bad
TTITLE5=You're Gonna Miss Me When I'm Gone
TTITLE6=Hello My Lover
TTITLE7=Hey-Hey-Hey-Hey
TTITLE8=Got A Hook On You
TTITLE9=I Had To Try
TTITLE10=I Wonder If You Care As Much
TTITLE11=Ice Cube
TTITLE12=Jack Daniels Kind Of Day
TTITLE13=Avocado Green
TTITLE14=Bad News
TTITLE15=Ballad Of Berta Glutz
EXTD=Spawned by WaR
EXTT0=
EXTT1=
EXTT2=
EXTT3=
EXTT4=
EXTT5=
EXTT6=
EXTT7=
EXTT8=
EXTT9=
EXTT10=
EXTT11=
EXTT12=
EXTT13=
EXTT14=
EXTT15=
PLAYORDER=
